<svg width="1320" height="1337" viewBox="0 0 1320 1337" fill="none" xmlns="http://www.w3.org/2000/svg">
<path d="M468.74 535.02L464.118 507.966C447.942 413.277 561.579 352.467 631.386 418.456L709.872 492.65C717.391 499.758 725.967 505.655 735.295 510.133L739.293 512.052C755.762 519.957 774.081 523.199 792.262 521.428L849.064 515.895C929.941 498.596 984.682 596.078 927.813 656.13L853.086 735.041C830.109 759.303 821.876 794.007 831.504 826.005C858.029 914.159 754.312 983.327 683.123 924.96L622.853 875.546C600.106 856.896 570.302 849.207 541.372 854.525L416.459 877.487C342.137 885.076 295.972 798.765 343.541 741.158L447.277 615.532C465.804 593.096 473.64 563.702 468.74 535.02Z" fill="#B4F1B6" stroke="#B4F1B6"/>
<circle cx="607.469" cy="40.6357" r="5" transform="rotate(90 607.469 40.6357)" fill="#95B7FA"/>
<circle cx="548.469" cy="605.636" r="12" transform="rotate(90 548.469 605.636)" fill="#FF8989"/>
<circle cx="642.469" cy="323.636" r="10" transform="rotate(90 642.469 323.636)" fill="#FDFAAF"/>
<circle cx="889.969" cy="211.136" r="7.5" transform="rotate(90 889.969 211.136)" fill="#FF8989"/>
<circle cx="912.969" cy="625.136" r="7.5" transform="rotate(90 912.969 625.136)" fill="#95B7FA"/>
</svg>
