<svg width="1336" height="1320" viewBox="0 0 1336 1320" fill="none" xmlns="http://www.w3.org/2000/svg">
<path d="M534.384 850.729L507.33 855.35C412.641 871.526 351.832 757.89 417.821 688.083L492.014 609.596C499.122 602.077 505.02 593.501 509.497 584.174L511.416 580.175C519.321 563.707 522.564 545.388 520.792 527.207L515.259 470.405C497.96 389.528 595.442 334.786 655.494 391.655L734.405 466.383C758.667 489.359 793.371 497.593 825.369 487.965C913.523 461.44 982.691 565.156 924.324 636.346L874.91 696.615C856.26 719.362 848.571 749.167 853.889 778.097L876.851 903.01C884.44 977.331 798.129 1023.5 740.523 975.928L614.897 872.192C592.46 853.665 563.066 845.829 534.384 850.729Z" fill="#B4F1B6" stroke="#B4F1B6"/>
<circle cx="40" cy="712" r="5" fill="#95B7FA"/>
<circle cx="605" cy="771" r="12" fill="#FF8989"/>
<circle cx="323" cy="677" r="10" fill="#FDFAAF"/>
<circle cx="210.5" cy="429.5" r="7.5" fill="#FF8989"/>
<circle cx="624.5" cy="406.5" r="7.5" fill="#95B7FA"/>
</svg>
