<svg width="558" height="629" viewBox="0 0 558 629" fill="none" xmlns="http://www.w3.org/2000/svg">
<path d="M145.384 483.729L118.33 488.35C23.6413 504.526 -37.1685 390.89 28.8206 321.083L103.014 242.596C110.122 235.077 116.02 226.501 120.497 217.174L122.416 213.175C130.321 196.707 133.564 178.388 131.792 160.207L126.259 103.405C108.96 22.5279 206.442 -32.2137 266.494 24.6551L345.405 99.3828C369.667 122.359 404.371 130.593 436.369 120.965C524.523 94.4396 593.691 198.156 535.324 269.346L485.91 329.615C467.26 352.362 459.571 382.167 464.889 411.097L487.851 536.01C495.44 610.331 409.129 656.497 351.523 608.928L225.897 505.192C203.46 486.665 174.066 478.829 145.384 483.729Z" fill="#B4F1B6" stroke="#B4F1B6"/>
</svg>
